<svg width="1001" height="207" viewBox="0 0 1001 207" fill="none" xmlns="http://www.w3.org/2000/svg">
<path d="M280.768 158.683H253.769V41.3776H280.768V158.683Z" fill="#EC5540"/>
<path d="M339.355 72.1004C344.445 72.1004 349.1 72.9693 353.32 74.7072C357.541 76.3209 361.141 78.7415 364.12 81.9689C367.223 85.0722 369.582 88.8583 371.195 93.327C372.933 97.7958 373.802 102.823 373.802 108.409V158.683H348.665V113.064C348.665 107.478 347.176 103.134 344.196 100.03C341.341 96.9269 337.555 95.3752 332.838 95.3752C328.121 95.3752 324.273 96.9269 321.294 100.03C318.439 103.134 317.011 107.478 317.011 113.064V158.683H291.875V73.0314H310.494L314.218 81.4103C316.205 79.6725 318.501 78.1208 321.108 76.7553C323.342 75.6381 326.011 74.583 329.114 73.59C332.218 72.5969 335.631 72.1004 339.355 72.1004Z" fill="#EC5540"/>
<path d="M389.658 96.3062H376.624V74.8934H383.141C389.968 74.8934 393.382 71.4797 393.382 64.6524V52.5495H414.795V73.0314H432.484V96.3062H414.795V124.236C414.795 127.96 415.85 130.939 417.96 133.174C420.071 135.284 422.739 136.339 425.967 136.339C426.96 136.339 427.829 136.339 428.574 136.339C429.318 136.215 430.001 136.091 430.622 135.967C431.242 135.842 431.863 135.656 432.484 135.408V157.752C431.491 158.124 430.374 158.435 429.132 158.683C426.65 159.303 423.732 159.614 420.381 159.614C410.574 159.614 403.002 156.945 397.665 151.607C392.327 146.145 389.658 138.263 389.658 127.96V96.3062Z" fill="#EC5540"/>
<path d="M518.223 133.546C517.105 137.022 515.43 140.373 513.195 143.601C510.961 146.828 508.168 149.745 504.816 152.352C501.465 154.835 497.554 156.821 493.086 158.31C488.741 159.8 483.776 160.545 478.19 160.545C472.356 160.545 466.832 159.428 461.618 157.193C456.529 154.835 451.998 151.669 448.026 147.697C444.177 143.601 441.074 138.884 438.716 133.546C436.481 128.084 435.364 122.188 435.364 115.857C435.364 109.526 436.481 103.692 438.716 98.3544C441.074 92.8926 444.24 88.1755 448.212 84.2033C452.184 80.1069 456.777 76.9415 461.99 74.7072C467.328 72.3486 473.038 71.1694 479.121 71.1694C484.955 71.1694 490.417 72.2245 495.506 74.3348C500.596 76.445 505.002 79.4863 508.726 83.4585C512.574 87.3066 515.554 92.0236 517.664 97.6096C519.898 103.071 521.016 109.154 521.016 115.857C521.016 116.85 520.953 117.843 520.829 118.836C520.705 119.705 520.581 120.574 520.457 121.443C520.333 122.436 520.209 123.367 520.085 124.236H461.432C462.425 127.463 464.411 130.443 467.39 133.174C470.494 135.905 474.404 137.27 479.121 137.27C481.479 137.27 483.465 137.022 485.079 136.525C486.817 135.905 488.182 135.222 489.176 134.477C490.417 133.732 491.41 132.801 492.155 131.684L518.223 133.546ZM479.121 94.4442C474.404 94.4442 470.494 95.8718 467.39 98.7268C464.411 101.458 462.425 104.685 461.432 108.409H496.81C495.817 104.685 493.768 101.458 490.665 98.7268C487.686 95.8718 483.838 94.4442 479.121 94.4442Z" fill="#EC5540"/>
<path d="M568.431 72.1004C569.548 72.1004 570.541 72.1624 571.41 72.2866C572.403 72.4107 573.21 72.5348 573.831 72.659C574.575 72.7831 575.258 72.9072 575.879 73.0314V99.0992C575.134 98.8509 574.265 98.5406 573.272 98.1682C572.403 97.9199 571.41 97.7337 570.293 97.6096C569.176 97.3613 567.934 97.2372 566.569 97.2372C561.852 97.2372 558.004 98.7889 555.024 101.892C552.169 104.996 550.742 109.34 550.742 114.926V158.683H525.605V73.0314H544.225L547.949 82.3413C549.438 80.4793 551.238 78.8035 553.349 77.3139C555.087 75.9485 557.197 74.7692 559.679 73.7762C562.286 72.659 565.203 72.1004 568.431 72.1004Z" fill="#EC5540"/>
<path d="M618.697 71.1694C622.918 71.1694 626.766 71.6659 630.241 72.659C633.717 73.5279 636.82 74.7692 639.551 76.3829C642.282 77.9967 644.641 79.7966 646.627 81.7827C648.737 83.7688 650.537 85.817 652.027 87.9273C655.502 92.8926 658.047 98.4785 659.661 104.685L634.524 106.547C633.655 104.313 632.538 102.327 631.172 100.589C629.931 99.0992 628.255 97.7337 626.145 96.4924C624.159 95.127 621.676 94.4442 618.697 94.4442C613.484 94.4442 609.077 96.3683 605.477 100.216C601.877 104.065 600.077 109.278 600.077 115.857C600.077 122.436 601.877 127.65 605.477 131.498C609.077 135.346 613.484 137.27 618.697 137.27C621.676 137.27 624.159 136.649 626.145 135.408C628.255 134.167 629.931 132.801 631.172 131.312C632.538 129.574 633.655 127.526 634.524 125.167L659.661 127.029C658.047 133.236 655.502 138.822 652.027 143.787C650.537 145.897 648.737 147.945 646.627 149.931C644.641 151.918 642.282 153.718 639.551 155.331C636.82 156.945 633.717 158.186 630.241 159.055C626.766 160.048 622.918 160.545 618.697 160.545C612.615 160.545 606.905 159.428 601.567 157.193C596.353 154.835 591.76 151.669 587.788 147.697C583.816 143.601 580.651 138.884 578.292 133.546C576.058 128.084 574.94 122.188 574.94 115.857C574.94 109.526 576.058 103.692 578.292 98.3544C580.651 92.8926 583.816 88.1755 587.788 84.2033C591.76 80.1069 596.353 76.9415 601.567 74.7072C606.905 72.3486 612.615 71.1694 618.697 71.1694Z" fill="#EC5540"/>
<path d="M660.548 115.857C660.548 109.526 661.665 103.692 663.9 98.3544C666.258 92.8926 669.424 88.1755 673.396 84.2033C677.368 80.1069 681.961 76.9415 687.175 74.7072C692.512 72.3486 698.222 71.1694 704.305 71.1694C710.387 71.1694 716.035 72.3486 721.249 74.7072C726.587 76.9415 731.242 80.1069 735.214 84.2033C739.186 88.1755 742.29 92.8926 744.524 98.3544C746.882 103.692 748.062 109.526 748.062 115.857C748.062 122.188 746.882 128.084 744.524 133.546C742.29 138.884 739.186 143.601 735.214 147.697C731.242 151.669 726.587 154.835 721.249 157.193C716.035 159.428 710.387 160.545 704.305 160.545C698.222 160.545 692.512 159.428 687.175 157.193C681.961 154.835 677.368 151.669 673.396 147.697C669.424 143.601 666.258 138.884 663.9 133.546C661.665 128.084 660.548 122.188 660.548 115.857ZM722.925 115.857C722.925 109.278 721.125 104.065 717.525 100.216C713.925 96.3683 709.519 94.4442 704.305 94.4442C699.091 94.4442 694.685 96.3683 691.085 100.216C687.485 104.065 685.685 109.278 685.685 115.857C685.685 122.436 687.485 127.65 691.085 131.498C694.685 135.346 699.091 137.27 704.305 137.27C709.519 137.27 713.925 135.346 717.525 131.498C721.125 127.65 722.925 122.436 722.925 115.857Z" fill="#EC5540"/>
<path d="M790.007 159.614C784.67 159.614 779.58 158.559 774.739 156.448C769.898 154.214 765.615 151.173 761.891 147.325C758.292 143.352 755.374 138.697 753.14 133.36C751.03 128.022 749.975 122.188 749.975 115.857C749.975 109.526 751.03 103.692 753.14 98.3544C755.374 93.0167 758.292 88.4238 761.891 84.5757C765.615 80.6035 769.898 77.5622 774.739 75.452C779.58 73.2176 784.67 72.1004 790.007 72.1004C793.235 72.1004 796.152 72.4728 798.759 73.2176C801.49 73.9624 803.786 74.8313 805.648 75.8244C807.882 76.9415 809.807 78.1829 811.42 79.5483V41.3776H836.557V158.683H817.937L814.213 150.304C812.227 152.042 810.055 153.593 807.696 154.959C805.586 156.2 803.041 157.317 800.062 158.31C797.083 159.179 793.731 159.614 790.007 159.614ZM775.111 115.857C775.111 121.94 776.911 126.905 780.511 130.753C784.111 134.477 788.518 136.339 793.731 136.339C798.945 136.339 803.352 134.477 806.951 130.753C810.551 126.905 812.351 121.94 812.351 115.857C812.351 109.775 810.551 104.871 806.951 101.147C803.352 97.2993 798.945 95.3752 793.731 95.3752C788.518 95.3752 784.111 97.2993 780.511 101.147C776.911 104.871 775.111 109.775 775.111 115.857Z" fill="#EC5540"/>
<path d="M924.987 133.546C923.87 137.022 922.194 140.373 919.96 143.601C917.725 146.828 914.932 149.745 911.581 152.352C908.229 154.835 904.319 156.821 899.85 158.31C895.505 159.8 890.54 160.545 884.954 160.545C879.12 160.545 873.596 159.428 868.383 157.193C863.293 154.835 858.762 151.669 854.79 147.697C850.942 143.601 847.839 138.884 845.48 133.546C843.246 128.084 842.128 122.188 842.128 115.857C842.128 109.526 843.246 103.692 845.48 98.3544C847.839 92.8926 851.004 88.1755 854.976 84.2033C858.948 80.1069 863.541 76.9415 868.755 74.7072C874.093 72.3486 879.803 71.1694 885.885 71.1694C891.719 71.1694 897.181 72.2245 902.271 74.3348C907.36 76.445 911.767 79.4863 915.491 83.4585C919.339 87.3066 922.318 92.0236 924.428 97.6096C926.663 103.071 927.78 109.154 927.78 115.857C927.78 116.85 927.718 117.843 927.594 118.836C927.47 119.705 927.346 120.574 927.221 121.443C927.097 122.436 926.973 123.367 926.849 124.236H868.196C869.189 127.463 871.175 130.443 874.155 133.174C877.258 135.905 881.168 137.27 885.885 137.27C888.244 137.27 890.23 137.022 891.844 136.525C893.581 135.905 894.947 135.222 895.94 134.477C897.181 133.732 898.174 132.801 898.919 131.684L924.987 133.546ZM885.885 94.4442C881.168 94.4442 877.258 95.8718 874.155 98.7268C871.175 101.458 869.189 104.685 868.196 108.409H903.574C902.581 104.685 900.533 101.458 897.43 98.7268C894.45 95.8718 890.602 94.4442 885.885 94.4442Z" fill="#EC5540"/>
<path d="M952.851 130.753C953.348 133.608 954.527 135.905 956.389 137.642C958.251 139.256 960.796 140.063 964.023 140.063C967.251 140.063 969.733 139.318 971.471 137.829C973.333 136.215 974.264 134.477 974.264 132.615C974.264 131.125 973.147 129.946 970.913 129.077C968.802 128.084 966.133 127.153 962.906 126.284C959.679 125.291 956.141 124.174 952.293 122.933C948.569 121.691 945.093 120.078 941.866 118.091C938.638 115.981 935.907 113.25 933.673 109.899C931.563 106.547 930.508 102.327 930.508 97.2372C930.508 93.7615 931.252 90.472 932.742 87.3687C934.231 84.1412 936.342 81.3483 939.073 78.9897C941.928 76.6312 945.341 74.7692 949.314 73.4038C953.41 71.9142 958.003 71.1694 963.092 71.1694C974.264 71.1694 982.767 73.652 988.602 78.6173C994.436 83.5826 998.036 89.7893 999.401 97.2372L975.195 99.0992C974.699 97.2372 973.581 95.5614 971.844 94.0718C970.106 92.4581 967.809 91.6512 964.954 91.6512C962.099 91.6512 959.989 92.2719 958.624 93.5132C957.258 94.7546 956.575 96.3062 956.575 98.1682C956.575 99.7819 957.63 101.023 959.741 101.892C961.975 102.761 964.706 103.692 967.933 104.685C971.161 105.554 974.637 106.609 978.361 107.851C982.209 109.092 985.746 110.768 988.974 112.878C992.201 114.864 994.87 117.533 996.98 120.884C999.215 124.236 1000.33 128.457 1000.33 133.546C1000.33 137.022 999.525 140.373 997.911 143.601C996.422 146.828 994.187 149.745 991.208 152.352C988.229 154.835 984.567 156.821 980.223 158.31C976.002 159.8 971.223 160.545 965.885 160.545C954.217 160.545 945.403 158 939.445 152.911C933.611 147.821 930.011 141.056 928.646 132.615L952.851 130.753Z" fill="#EC5540"/>
<circle cx="103.776" cy="103.444" r="103.444" fill="#EC5540"/>
<path d="M78.2292 111.857V130.043L33.332 112.994V94.8077L78.2292 77.7581V95.9443L54.9281 103.901L78.2292 111.857Z" fill="#181414"/>
<path d="M114.557 148.799H92.9611V59.0002H114.557V148.799Z" fill="#181414"/>
<path d="M129.298 95.9443V77.7581L174.195 94.8077V112.994L129.298 130.043V111.857L152.599 103.901L129.298 95.9443Z" fill="#181414"/>
</svg>
